<svg width="3909" height="751" viewBox="0 0 3909 751" fill="none" xmlns="http://www.w3.org/2000/svg">
<path d="M2742.95 544.475C2656.76 563.431 2614.54 491.053 2614.54 423.846C2614.54 394.146 2631.95 335.127 2658.06 292.446C2691.04 238.543 2734.33 203.267 2734.33 203.267C2734.33 203.267 2729.51 241.703 2753.29 285.553C2780.79 336.27 2829.56 374.301 2836.46 415.66C2843.35 457.019 2829.13 525.519 2742.95 544.475Z" fill="#520FA8"/>
<path d="M2715.76 487.898L2713.76 488.716C2701.83 492.693 2683.95 498.644 2668.41 506.207C2667.59 506.596 2666.82 507.784 2666.82 507.784C2666.4 508.573 2665.98 509.39 2665.64 510.184C2663.98 514.156 2661.27 520.136 2660.45 522.902L2659.69 524.931V525.693L2660.03 526.117H2660.45L2662.37 525.328C2666.82 523.296 2672.36 520.136 2677.96 517.371H2678.34C2688.6 512.585 2698.82 507.678 2708.97 502.651C2708.97 502.651 2710.15 501.862 2710.97 500.677L2716.52 489.507V488.719C2716.52 487.898 2716.1 487.533 2715.76 487.898H2715.76ZM2671.2 470.413C2672.02 468.807 2675.54 462.038 2676.39 460.455V460.061C2700.64 414.317 2730.12 371.342 2763.85 331.944L2764.7 330.744C2765.12 330.335 2765.12 329.944 2764.7 329.555C2764.27 329.152 2763.85 328.743 2763.51 329.152H2761.93C2739.59 332.35 2716.95 336.324 2694.69 341.884C2692.27 342.687 2691.08 343.89 2690.66 344.255C2673.96 364.167 2658.42 385.248 2643.67 406.754C2644.15 407.94 2644.15 410.334 2644.15 410.334C2644.15 410.334 2647.68 438.177 2652.9 458.875C2640.14 496.673 2628.21 546.791 2628.21 546.791V547.609C2628.21 548.003 2628.64 548.003 2628.97 548.003H2636.54C2636.93 548.003 2637.35 547.612 2637.78 547.214L2638.12 545.608C2645.68 524.931 2654.48 504.23 2663.98 484.315C2666.4 479.918 2671.2 470.413 2671.2 470.413" fill="#53C38E"/>
<path d="M2775.45 340.307V338.713C2775.45 338.304 2775.02 337.892 2774.68 337.524C2774.26 337.524 2773.83 337.524 2773.44 337.892L2772.65 339.092C2732.8 384.856 2699.82 435.777 2673.63 490.302L2672.78 491.478V492.693C2673.11 493.061 2673.11 493.061 2673.63 493.061H2673.96L2675.15 492.693C2697.4 483.53 2720.13 475.575 2742.78 468.807C2743.97 468.41 2745.21 467.621 2745.97 466.438C2755.95 447.341 2778.97 409.928 2778.97 409.928C2779.82 408.728 2779.45 407.534 2779.45 407.534C2779.45 407.534 2775.45 362.964 2775.45 340.307" fill="#53C38E"/>
<path d="M2826.38 275.843C2820.85 271.048 2812.39 268.665 2799.7 268.285C2788.62 267.877 2775.02 270.668 2759.51 275.434C2757.13 276.254 2755.53 277.437 2753.53 279.002C2737.65 293.74 2722.56 309.663 2708.2 325.581L2706.96 326.767C2706.6 327.175 2706.6 327.555 2706.96 327.964C2707.36 328.364 2707.78 328.743 2708.2 328.364L2709.79 327.961C2733.31 322.789 2756.71 319.206 2779.82 316.797C2781.4 316.797 2783 317.206 2784.16 317.995C2785.43 319.206 2785.76 320.407 2785.76 321.975C2785.43 345.073 2786.19 368.142 2788.14 390.422V392.014C2788.14 392.402 2788.62 392.811 2788.95 392.811H2789.38C2789.8 392.811 2790.14 392.811 2790.14 392.402L2790.96 391.213C2804.07 372.531 2818.01 354.604 2833.12 337.524C2834.7 335.524 2835.13 334.324 2835.55 332.718C2840.26 303.668 2833.12 281.414 2826.38 275.843Z" fill="#53C38E"/>
<path d="M1480.65 363.24C1470.36 352.977 1459.69 349.686 1445.83 349.686C1429.01 349.686 1413.08 357.079 1405.17 369.15V351.447H1383.95V496.508H1405.17V407.477C1405.17 385.354 1418.65 368.562 1439.88 368.562C1451.08 368.562 1457.04 371.201 1464.98 379.17L1480.65 363.24ZM1594.59 423.991C1594.59 401.575 1591.67 381.225 1576.86 366.201C1566.87 356.177 1553.01 349.69 1535.27 349.69C1517.62 349.69 1503.76 356.177 1493.74 366.197C1479.03 381.221 1476.12 401.571 1476.12 423.987C1476.12 446.408 1479.03 466.714 1493.74 481.766C1503.76 491.782 1517.62 498.277 1535.27 498.277C1553.01 498.277 1566.87 491.786 1576.86 481.766C1591.67 466.718 1594.59 446.408 1594.59 423.991ZM1573.36 423.991C1573.36 440.196 1572.44 458.157 1561.88 468.797C1555.09 475.582 1545.64 479.421 1535.27 479.421C1524.99 479.421 1515.81 475.582 1509.13 468.797C1498.46 458.157 1497.35 440.196 1497.35 423.991C1497.35 407.755 1498.46 389.79 1509.13 379.17C1515.81 372.373 1524.99 368.558 1535.27 368.558C1545.64 368.558 1555.09 372.373 1561.88 379.17C1572.44 389.79 1573.36 407.755 1573.36 423.991H1573.36ZM1740.93 423.991C1740.93 401.265 1738.01 377.099 1723.31 362.397C1715.66 354.738 1702.62 349.69 1687.91 349.69C1671.98 349.69 1658.66 353.22 1646.87 368.252V286.633H1625.64V496.508H1646.87V479.119C1658.66 494.433 1671.98 498.277 1687.91 498.277C1702.62 498.277 1715.66 493.245 1723.31 485.57C1738.01 470.864 1740.93 446.674 1740.93 423.991ZM1719.7 423.991C1719.7 452.283 1714.98 479.421 1683.46 479.421C1651.98 479.421 1646.87 452.283 1646.87 423.991C1646.87 395.684 1651.98 368.562 1683.46 368.562C1714.98 368.562 1719.7 395.684 1719.7 423.991ZM1793.29 496.508V351.447H1772.06V496.508H1793.29ZM1794.72 310.187V286.323H1770.96V310.187H1794.72ZM1946.51 496.508V403.642C1946.51 386.829 1941.78 373.264 1931.41 363.24C1922.55 354.388 1909.92 349.686 1894.26 349.686C1878.14 349.686 1863.96 355.581 1853.6 367.373V351.447H1832.37V496.508H1853.6V407.171C1853.6 381.821 1867.73 368.562 1889.54 368.562C1911.42 368.562 1925.28 381.511 1925.28 407.171V496.508H1946.51ZM2097.84 496.508V403.331C2097.84 370.609 2078.41 349.69 2045.66 349.69C2029.46 349.69 2015.56 355.318 2005.01 367.369V286.633H1983.77V496.508H2005.01V406.873C2005.01 381.821 2019.44 368.558 2041.26 368.558C2063.02 368.558 2076.61 381.511 2076.61 406.873V496.508H2097.84ZM2246.06 423.991C2246.06 401.575 2243.07 381.225 2228.33 366.201C2218.22 356.177 2204.44 349.69 2186.71 349.69C2169.09 349.69 2155.2 356.177 2145.14 366.197C2130.51 381.221 2127.47 401.571 2127.47 423.987C2127.47 446.408 2130.51 466.714 2145.14 481.766C2155.2 491.782 2169.09 498.277 2186.71 498.277C2204.44 498.277 2218.22 491.786 2228.33 481.766C2243.07 466.718 2246.06 446.408 2246.06 423.991ZM2224.83 423.991C2224.83 440.196 2223.91 458.157 2213.32 468.797C2206.44 475.582 2197 479.421 2186.71 479.421C2176.42 479.421 2167.29 475.582 2160.49 468.797C2149.82 458.157 2148.7 440.196 2148.7 423.991C2148.7 407.755 2149.82 389.79 2160.49 379.17C2167.29 372.373 2176.42 368.558 2186.71 368.558C2197 368.558 2206.44 372.373 2213.32 379.17C2223.91 389.79 2224.83 407.755 2224.83 423.991ZM2387.95 423.991C2387.95 401.575 2385.03 381.225 2370.22 366.201C2360.3 356.177 2346.45 349.69 2328.72 349.69C2311.06 349.69 2297.12 356.177 2287.22 366.197C2272.39 381.221 2269.48 401.571 2269.48 423.987C2269.48 446.408 2272.39 466.714 2287.22 481.766C2297.12 491.782 2311.06 498.277 2328.72 498.277C2346.46 498.277 2360.3 491.786 2370.22 481.766C2385.03 466.718 2387.94 446.408 2387.94 423.991H2387.95ZM2366.72 423.991C2366.72 440.196 2365.88 458.157 2355.24 468.797C2348.52 475.582 2339.07 479.421 2328.72 479.421C2318.35 479.421 2309.28 475.582 2302.5 468.797C2291.94 458.157 2290.7 440.196 2290.7 423.991C2290.7 407.755 2291.94 389.79 2302.5 379.17C2309.29 372.373 2318.35 368.558 2328.72 368.558C2339.07 368.558 2348.52 372.373 2355.24 379.17C2365.88 389.79 2366.72 407.755 2366.72 423.991ZM2526.76 496.508V286.633H2505.54V368.252C2493.71 353.22 2480.42 349.69 2464.49 349.69C2449.76 349.69 2436.74 354.738 2429.1 362.397C2414.35 377.103 2411.44 401.269 2411.44 423.991C2411.44 446.674 2414.36 470.864 2429.1 485.57C2436.74 493.245 2449.76 498.277 2464.49 498.277C2480.42 498.277 2494.02 494.433 2505.81 479.119V496.508H2526.76ZM2505.54 423.991C2505.54 452.283 2500.82 479.421 2469.18 479.421C2437.58 479.421 2432.67 452.283 2432.67 423.991C2432.67 395.684 2437.59 368.562 2469.18 368.562C2500.82 368.562 2505.54 395.684 2505.54 423.991Z" fill="#53C38E"/>
<path d="M1024.76 309.772H1148.47V339.843H1057.99V385.741H1143.72V415.812H1057.99V466.458H1153.22V496.529H1024.76V309.772Z" fill="#520FA8"/>
<path d="M1229.01 428.473L1185.22 369.914H1223.74L1249.06 407.899L1276.49 369.914H1312.63L1269.37 428.473L1320.28 496.529H1281.77L1248.79 451.159L1215.56 496.529H1178.1L1229.01 428.473Z" fill="#520FA8"/>
</svg>
